<?xml version="1.0" standalone="no"?>
<!DOCTYPE svg PUBLIC "-//W3C//DTD SVG 20010904//EN"
 "http://www.w3.org/TR/2001/REC-SVG-20010904/DTD/svg10.dtd">
<svg version="1.0" xmlns="http://www.w3.org/2000/svg"
 width="414.000000pt" height="544.000000pt" viewBox="0 0 414.000000 544.000000"
 preserveAspectRatio="xMidYMid meet">

<g transform="translate(0.000000,544.000000) scale(0.100000,-0.100000)"
fill="#000000" stroke="none">
<path d="M370 5437 c0 -1 27 -344 60 -762 33 -418 60 -771 60 -786 0 -20 85
-133 338 -450 186 -233 352 -438 368 -455 46 -48 809 -1004 809 -1013 0 -5 29
-46 65 -92 36 -46 69 -90 73 -96 6 -9 -62 -47 -223 -128 -160 -80 -229 -119
-224 -128 27 -44 185 -277 189 -277 3 0 185 90 405 200 l400 200 -113 143
c-62 78 -201 252 -308 387 -107 135 -220 279 -252 320 -31 41 -86 111 -122
155 -83 101 -455 565 -785 979 l-254 319 -43 536 c-23 295 -43 555 -43 579 l0
42 1419 0 1419 0 7 -62 c5 -60 72 -908 77 -995 l3 -42 -788 -529 c-434 -292
-789 -533 -789 -537 0 -4 48 -67 107 -141 l107 -135 27 18 c15 10 409 274 875
588 l847 569 -5 46 c-3 25 -31 374 -61 775 -31 402 -58 740 -61 753 l-4 22
-1790 0 c-985 0 -1790 -1 -1790 -3z"/>
<path d="M2652 2544 l-134 -96 45 -47 c24 -25 266 -289 537 -586 271 -297 511
-559 533 -582 l40 -42 33 -418 c18 -230 34 -424 34 -430 0 -10 -333 -13 -1635
-13 l-1634 0 -5 33 c-6 38 -76 940 -76 977 0 22 66 70 535 384 294 198 535
363 535 368 0 13 -204 267 -215 267 -5 0 -287 -185 -625 -413 -542 -364 -615
-416 -613 -437 1 -13 28 -358 60 -766 l57 -743 2006 0 2005 0 -3 43 c-2 23
-25 315 -51 649 l-48 606 -145 159 c-80 87 -355 388 -612 668 -257 281 -472
511 -479 512 -7 2 -72 -41 -145 -93z"/>
</g>
</svg>
