<?xml version="1.0" encoding="UTF-8"?>
<svg version="1.1" xmlns="http://www.w3.org/2000/svg" width="478" height="303">
<path d="M0 0 C1.27392914 -0.00597315 2.54785827 -0.01194629 3.86039132 -0.01810044 C5.28217745 -0.00954071 6.70396194 -0.00070391 8.12574482 0.00837994 C9.62976298 0.00707248 11.13378048 0.00444717 12.63779432 0.00061244 C16.78127605 -0.00611634 20.92452649 0.00593284 25.06797874 0.02094662 C29.53218047 0.03386837 33.99636852 0.02952027 38.46058369 0.0272398 C46.19863395 0.02566461 53.93660849 0.0350994 61.6746397 0.05195332 C72.86260478 0.07630558 84.05053314 0.08414472 95.23852185 0.08791729 C113.38904537 0.09448771 131.53952851 0.11446487 149.6900301 0.14282513 C167.32446814 0.17035043 184.95889523 0.19159149 202.59335041 0.20434856 C204.22306774 0.20553082 204.22306774 0.20553082 205.88570865 0.20673696 C211.33609862 0.21065199 216.78648866 0.21444314 222.23687875 0.21817267 C267.47332502 0.24928695 312.70972723 0.3021388 357.94613361 0.36914349 C357.95484405 1.97190271 357.96106302 3.57467561 357.96622658 5.17745018 C357.96995633 6.06999211 357.97368609 6.96253404 357.97752887 7.8821227 C357.94248552 10.65813225 357.65198689 13.28199028 357.16756916 16.01489544 C356.99706547 16.99903927 356.82656178 17.9831831 356.6508913 18.99714947 C356.36971203 20.53673573 356.36971203 20.53673573 356.08285236 22.10742474 C355.89020298 23.19121914 355.6975536 24.27501354 355.49906635 25.3916502 C355.09227829 27.66560706 354.68109566 29.93878178 354.26571369 32.2111845 C353.63273038 35.68660274 353.02008271 39.16520201 352.40902424 42.64453411 C352.00985024 44.86155038 351.60950051 47.07835536 351.20785236 49.29492474 C351.02647221 50.33143673 350.84509205 51.36794872 350.65821552 52.43587017 C349.46309197 58.86694508 348.16176901 63.82568039 342.97738361 68.16601849 C342.12950275 68.88434856 342.12950275 68.88434856 341.26449299 69.61719036 C340.66443439 70.11283489 340.0643758 70.60847942 339.44613361 71.11914349 C338.82029377 71.64572552 338.19445393 72.17230755 337.54964924 72.71484661 C333.00088868 76.53098314 328.39966562 80.28333515 323.78988361 84.02539349 C320.46926768 86.76216486 317.20569653 89.56020733 313.94613361 92.36914349 C308.93021673 96.69087212 303.85438062 100.92393545 298.71566486 105.09961224 C293.40171695 109.45420143 288.18086595 113.91992784 282.94613361 118.36914349 C275.93378803 124.32922619 268.89652556 130.24673144 261.75863361 136.05664349 C258.06519451 139.09347119 254.42314875 142.18875304 250.77987385 145.28540325 C247.38659252 148.16459668 243.96345576 151.00118586 240.50863361 153.80664349 C236.26220979 157.261885 232.09317067 160.79612183 227.94613361 164.36914349 C222.94341807 168.67940422 217.88317566 172.90378322 212.75472736 177.06445599 C208.88480476 180.24005312 205.07410235 183.48404462 201.27206135 186.74048138 C196.55793835 190.75935339 194.07865765 192.62116953 187.82235432 192.59619427 C186.56127354 192.59604321 185.30019276 192.59589214 184.00089741 192.5957365 C182.62456829 192.58552325 181.24824078 192.57509126 179.87191486 192.56445599 C178.46372904 192.56072521 177.05554061 192.55787854 175.64735126 192.55588055 C171.94340551 192.54824913 168.23961693 192.52860497 164.53573322 192.50647259 C160.75523727 192.48600351 156.9747159 192.47687656 153.19418049 192.46679974 C145.77809326 192.44535852 138.36213547 192.41122862 130.94613361 192.36914349 C132.1795216 188.66897954 133.58433805 187.82211315 136.63363361 185.43164349 C141.15092752 181.82835458 145.57481602 178.14802463 149.94613361 174.36914349 C154.958532 170.04895284 160.03153895 165.8181462 165.16878986 161.64648724 C168.29009629 159.08710377 171.37066785 156.48324433 174.44613361 153.86914349 C178.39263842 150.51467222 182.36255433 147.19692519 186.38363361 143.93164349 C190.63005744 140.47640198 194.79909655 136.94216514 198.94613361 133.36914349 C203.96209765 129.04746807 209.03788469 124.81435308 214.17660236 120.63867474 C219.49055028 116.28408554 224.71140127 111.81835913 229.94613361 107.36914349 C236.9584792 101.40906078 243.99574167 95.49155554 251.13363361 89.68164349 C254.26413245 87.10767778 257.35777805 84.49336099 260.44613361 81.86914349 C267.49136929 75.88566196 274.54965343 69.91650362 281.94613361 64.36914349 C163.80613361 64.03914349 45.66613361 63.70914349 -76.05386639 63.36914349 C-74.12096417 59.50333905 -72.77920634 57.9598821 -69.61636639 55.18164349 C-68.71917889 54.39273724 -67.82199139 53.60383099 -66.89761639 52.79101849 C-63.26068934 49.69363556 -59.55329904 46.68935976 -55.83902264 43.68554974 C-52.04277594 40.52822254 -48.4360328 37.18113757 -44.80386639 33.83789349 C-41.2420241 30.64033052 -37.52820806 27.65526006 -33.80386639 24.65039349 C-30.02685124 21.51718774 -26.44408404 18.18901348 -22.83511639 14.86523724 C-19.12078909 11.53173283 -15.26114689 8.39852075 -11.36636639 5.27929974 C-9.10270466 3.54453581 -9.10270466 3.54453581 -7.78770179 1.77283019 C-5.23199263 -0.29623297 -3.25729111 -0.00335919 0 0 Z " fill="#F9C00C" transform="translate(120.05386638641357,-0.3691434860229492)"/>
<path d="M0 0 C1.42630775 0.0093353 2.85263162 0.01644803 4.27896118 0.0214386 C8.0177706 0.04045274 11.75559578 0.08950266 15.49401855 0.1449585 C19.31488737 0.19627329 23.13591655 0.21897854 26.95703125 0.24414062 C34.44315515 0.29762914 41.92847047 0.38287125 49.4140625 0.48828125 C49.4140625 1.14828125 49.4140625 1.80828125 49.4140625 2.48828125 C47.90619089 3.86319424 46.32866489 5.16192587 44.7265625 6.42578125 C43.22029297 7.63041016 43.22029297 7.63041016 41.68359375 8.859375 C41.14814941 9.28718262 40.61270508 9.71499023 40.06103516 10.15576172 C37.30497905 12.38560966 34.61171917 14.68842828 31.9140625 16.98828125 C27.96810975 20.34338377 23.99762149 23.66051602 19.9765625 26.92578125 C15.73013868 30.38102276 11.56109956 33.91525959 7.4140625 37.48828125 C2.40086762 41.80757081 -2.6713107 46.03925244 -7.80859375 50.2109375 C-10.92990017 52.77032097 -14.01047174 55.37418041 -17.0859375 57.98828125 C-21.03244231 61.34275252 -25.00235822 64.66049954 -29.0234375 67.92578125 C-33.26986132 71.38102276 -37.43890044 74.91525959 -41.5859375 78.48828125 C-46.60190153 82.80995667 -51.67768858 87.04307166 -56.81640625 91.21875 C-62.13035416 95.57333919 -67.35120516 100.0390656 -72.5859375 104.48828125 C-79.69131425 110.52743499 -86.81465651 116.53512237 -94.05078125 122.41796875 C-96.9122591 124.75476884 -99.74781054 127.12317545 -102.5859375 129.48828125 C15.8840625 129.81828125 134.3540625 130.14828125 256.4140625 130.48828125 C248.34835076 138.55399299 240.01024201 146.0937953 231.12890625 153.2421875 C228.30732755 155.57658715 225.60815538 158.00818723 222.9140625 160.48828125 C218.46946447 164.57933171 213.87316415 168.40872066 209.171875 172.19921875 C205.42477741 175.3094159 201.8654861 178.60477081 198.3125 181.93359375 C196.87777344 183.19816406 196.87777344 183.19816406 195.4140625 184.48828125 C194.84472569 185.06615656 194.27538888 185.64403188 193.68879944 186.23941857 C186.83612659 192.53601484 180.37568951 192.46429194 171.43699646 192.33006287 C169.91954308 192.33311876 168.40209333 192.33925401 166.88466316 192.34818703 C162.73154356 192.36378779 158.57969536 192.33591406 154.42673767 192.3007406 C149.94219298 192.27044401 145.45771702 192.2807457 140.97309875 192.28605652 C133.20882182 192.28972278 125.4449574 192.26780498 117.68078423 192.22839165 C106.45523791 192.17144449 95.22989059 192.15326565 84.00421549 192.14447571 C65.79037635 192.12916433 47.57675696 192.08260431 29.36303711 192.01635742 C11.67261859 191.95208089 -6.0177402 191.90254336 -23.70825195 191.87280273 C-24.79912782 191.87096367 -25.89000369 191.86912461 -27.01393641 191.86722981 C-32.4866704 191.85809439 -37.95940482 191.84924847 -43.43213952 191.84054649 C-88.81689103 191.76800753 -134.20140291 191.64474004 -179.5859375 191.48828125 C-178.44124649 183.58337897 -177.23635818 175.6909112 -175.95683002 167.80682659 C-175.36426476 164.14401219 -174.79174818 160.4804744 -174.26635742 156.80737305 C-170.19324128 128.50677104 -170.19324128 128.50677104 -162.03515625 122.2890625 C-159.9228148 120.96071837 -157.77402486 119.68776372 -155.5859375 118.48828125 C-153.72495674 117.02272275 -151.88672907 115.52719672 -150.0859375 113.98828125 C-148.755625 112.90546875 -148.755625 112.90546875 -147.3984375 111.80078125 C-143.7049984 108.76395355 -140.06295264 105.6686717 -136.41967773 102.57202148 C-133.02639641 99.69282805 -129.60325964 96.85623888 -126.1484375 94.05078125 C-121.90201368 90.59553974 -117.73297456 87.06130291 -113.5859375 83.48828125 C-108.56997347 79.16660583 -103.49418642 74.93349084 -98.35546875 70.7578125 C-93.04152084 66.40322331 -87.82066984 61.9374969 -82.5859375 57.48828125 C-75.57359192 51.52819855 -68.53632945 45.6106933 -61.3984375 39.80078125 C-57.7049984 36.76395355 -54.06295264 33.6686717 -50.41967773 30.57202148 C-47.02639641 27.69282805 -43.60325964 24.85623888 -40.1484375 22.05078125 C-35.20453237 18.02751534 -30.35884818 13.89817768 -25.53149414 9.73657227 C-24.69799438 9.01812134 -24.69799438 9.01812134 -23.84765625 8.28515625 C-23.36256592 7.86588867 -22.87747559 7.44662109 -22.37768555 7.01464844 C-21.78640869 6.51094727 -21.19513184 6.00724609 -20.5859375 5.48828125 C-19.82949951 4.6156665 -19.07306152 3.74305176 -18.29370117 2.84399414 C-13.23184891 -1.32582654 -6.19031698 -0.11905429 0 0 Z " fill="#136FB7" transform="translate(179.5859375,111.51171875)"/>
<path d="M0 0 C1.70209877 0.00333092 1.70209877 0.00333092 3.43858337 0.00672913 C4.71983597 0.00680466 6.00108856 0.00688019 7.32116699 0.00695801 C8.73001646 0.01206542 10.13886554 0.01728143 11.54771423 0.02259827 C12.98118033 0.02446249 14.41464706 0.02588637 15.84811401 0.02688599 C19.62765755 0.03071079 23.40716288 0.04054075 27.18669128 0.05158997 C31.04075097 0.06180489 34.8948168 0.06638378 38.74888611 0.07142639 C46.31596085 0.08216306 53.88300407 0.09923903 61.45005798 0.12025452 C61.45005798 0.78025452 61.45005798 1.44025452 61.45005798 2.12025452 C59.94218638 3.4951675 58.36466038 4.79389913 56.76255798 6.05775452 C55.25628845 7.26238342 55.25628845 7.26238342 53.71958923 8.49134827 C53.1841449 8.91915588 52.64870056 9.3469635 52.09703064 9.78773499 C49.34097453 12.01758293 46.64771465 14.32040155 43.95005798 16.62025452 C40.00410523 19.97535703 36.03361697 23.29248929 32.01255798 26.55775452 C27.76613416 30.01299603 23.59709504 33.54723286 19.45005798 37.12025452 C14.4368631 41.43954408 9.36468479 45.6712257 4.22740173 49.84291077 C1.10609531 52.40229423 -1.97447626 55.00615368 -5.04994202 57.62025452 C-8.99644682 60.97472579 -12.96636274 64.29247281 -16.98744202 67.55775452 C-21.23386584 71.01299603 -25.40290496 74.54723286 -29.54994202 78.12025452 C-34.56590605 82.44192994 -39.64169309 86.67504492 -44.78041077 90.85072327 C-50.09435868 95.20531246 -55.31520968 99.67103887 -60.54994202 104.12025452 C-67.62061295 110.12991035 -74.70696655 116.1095675 -81.91712952 121.95228577 C-84.43555595 123.89659225 -84.43555595 123.89659225 -85.82977295 125.62387085 C-89.59018915 129.67531754 -92.63490155 130.5619656 -98.12782288 130.80140686 C-100.7619665 130.80046002 -103.3826506 130.76816767 -106.01478577 130.70619202 C-107.41723812 130.69498588 -108.81971414 130.68645239 -110.22219849 130.6804657 C-113.8938051 130.65767743 -117.56396234 130.59884614 -121.23500061 130.53224182 C-124.98887022 130.47059959 -128.7429766 130.44340431 -132.49720764 130.41322327 C-139.8487762 130.34908838 -147.19915518 130.24683633 -154.54994202 130.12025452 C-153.15230798 127.19508453 -151.93782298 125.31132096 -149.46009827 123.20228577 C-148.53946594 122.41120422 -148.53946594 122.41120422 -147.60023499 121.60414124 C-146.61627747 120.77680481 -146.61627747 120.77680481 -145.61244202 119.93275452 C-144.93584534 119.35541565 -144.25924866 118.77807678 -143.56214905 118.1832428 C-138.85322155 114.17870398 -134.0861412 110.24723255 -129.28431702 106.35462952 C-126.21973623 103.85042922 -123.19331982 101.30478153 -120.17494202 98.74525452 C-119.6322467 98.2850592 -119.08955139 97.82486389 -118.53041077 97.35072327 C-116.86967027 95.9412532 -115.20966539 94.5309221 -113.54994202 93.12025452 C-106.53759643 87.16017181 -99.50033396 81.24266657 -92.36244202 75.43275452 C-88.66900292 72.39592681 -85.02695715 69.30064496 -81.38368225 66.20399475 C-77.99040093 63.32480132 -74.56726416 60.48821215 -71.11244202 57.68275452 C-66.86601819 54.22751301 -62.69697908 50.69327617 -58.54994202 47.12025452 C-53.53397798 42.7985791 -48.45819094 38.56546411 -43.31947327 34.38978577 C-38.00552535 30.03519657 -32.78467436 25.56947016 -27.54994202 21.12025452 C-20.28533772 14.94576669 -12.99802943 8.81075325 -5.59681702 2.79994202 C-2.31800836 0.10931659 -2.31800836 0.10931659 0 0 Z " fill="#00A1E8" transform="translate(167.54994201660156,111.87974548339844)"/>
<path d="M0 0 C1.28095047 0.00030212 2.56190094 0.00060425 3.88166809 0.00091553 C5.26966989 0.02133903 6.65766527 0.04220297 8.0456543 0.06347656 C9.47339586 0.07094253 10.9011477 0.07663379 12.3289032 0.08062744 C16.07578116 0.09585609 19.82203296 0.1351128 23.56866455 0.17944336 C27.39619477 0.2204566 31.22382677 0.23865129 35.05151367 0.25878906 C42.55375139 0.30161079 50.05547428 0.36982721 57.55737305 0.45410156 C50.26451592 7.77566477 42.57233119 14.50555493 34.54174805 21.00488281 C31.16975817 23.77220958 27.86074984 26.60560572 24.55737305 29.45410156 C19.54160783 33.7760023 14.46561417 38.00889831 9.3269043 42.18457031 C4.01295638 46.5391595 -1.20789461 51.00488592 -6.44262695 55.45410156 C-13.45497254 61.41418427 -20.49223501 67.33168951 -27.63012695 73.14160156 C-31.32356605 76.17842927 -34.96561182 79.27371111 -38.60888672 82.37036133 C-42.00216804 85.24955476 -45.42530481 88.08614393 -48.88012695 90.89160156 C-53.12655078 94.34684307 -57.29558989 97.8810799 -61.44262695 101.45410156 C-66.4453425 105.76436229 -71.5055849 109.9887413 -76.6340332 114.14941406 C-80.50395581 117.32501119 -84.31465821 120.5690027 -88.11669922 123.82543945 C-92.83082221 127.84431147 -95.31010292 129.70612761 -101.56640625 129.68115234 C-102.82748703 129.68100128 -104.08856781 129.68085022 -105.38786316 129.68069458 C-106.76419228 129.67048133 -108.14051978 129.66004934 -109.5168457 129.64941406 C-110.92503153 129.64568329 -112.33321995 129.64283662 -113.7414093 129.64083862 C-117.44535506 129.63320721 -121.14914363 129.61356304 -124.85302734 129.59143066 C-128.63352329 129.57096159 -132.41404467 129.56183464 -136.19458008 129.55175781 C-143.61066731 129.5303166 -151.0266251 129.4961867 -158.44262695 129.45410156 C-157.20923897 125.75393761 -155.80442252 124.90707122 -152.75512695 122.51660156 C-148.23783305 118.91331265 -143.81394455 115.2329827 -139.44262695 111.45410156 C-134.43022857 107.13391092 -129.35722162 102.90310428 -124.2199707 98.73144531 C-121.09866428 96.17206185 -118.01809271 93.5682024 -114.94262695 90.95410156 C-110.99612215 87.59963029 -107.02620623 84.28188327 -103.00512695 81.01660156 C-98.75870313 77.56136005 -94.58966401 74.02712322 -90.44262695 70.45410156 C-85.42666292 66.13242614 -80.35087588 61.89931116 -75.2121582 57.72363281 C-69.89821029 53.36904362 -64.67735929 48.90331721 -59.44262695 44.45410156 C-52.43028137 38.49401886 -45.3930189 32.57651361 -38.25512695 26.76660156 C-35.12462904 24.19263661 -32.03094834 21.5783582 -28.94262695 18.95410156 C-23.16740139 14.04807143 -17.33330378 9.22139611 -11.44262695 4.45410156 C-10.7002327 3.76278137 -9.95783844 3.07146118 -9.19294739 2.35919189 C-5.83864608 0.03573645 -4.04751892 -0.03193309 0 0 Z " fill="#F3A129" transform="translate(409.442626953125,62.5458984375)"/>
</svg>
